<?xml version="1.0" standalone="no"?>
<!DOCTYPE svg PUBLIC "-//W3C//DTD SVG 20010904//EN"
 "http://www.w3.org/TR/2001/REC-SVG-20010904/DTD/svg10.dtd">
<svg version="1.0" xmlns="http://www.w3.org/2000/svg"
 width="500.000000pt" height="500.000000pt" viewBox="0 0 500.000000 500.000000"
 preserveAspectRatio="xMidYMid meet">

<g transform="translate(0.000000,500.000000) scale(0.100000,-0.100000)"
fill="#000000" stroke="none">
<path d="M920 3245 l0 -935 105 0 105 0 2 838 3 837 353 3 352 2 0 95 0 95
-460 0 -460 0 0 -935z"/>
<path d="M3697 4143 c19 -4 23 -12 26 -56 l3 -52 2 52 c2 45 5 52 25 56 12 2
0 4 -28 4 -27 0 -40 -2 -28 -4z"/>
<path d="M3813 4095 c0 -33 2 -48 4 -32 4 23 9 27 38 27 29 0 34 -4 38 -27 2
-16 4 -1 4 32 0 33 -2 50 -4 38 -4 -19 -11 -23 -38 -23 -27 0 -34 4 -38 23 -2
12 -4 -5 -4 -38z"/>
<path d="M3950 4095 c0 -30 5 -55 10 -55 6 0 10 11 10 25 0 18 5 25 19 25 24
0 43 23 35 44 -4 10 -18 16 -40 16 l-34 0 0 -55z m60 25 c0 -13 -7 -20 -20
-20 -13 0 -20 7 -20 20 0 13 7 20 20 20 13 0 20 -7 20 -20z"/>
<path d="M2351 3765 c-121 -34 -195 -95 -251 -206 -58 -114 -60 -134 -60 -810
0 -340 4 -638 9 -665 24 -123 88 -235 169 -295 61 -44 144 -70 247 -76 256
-15 418 95 482 328 26 94 26 583 0 679 -36 134 -93 212 -187 258 -50 24 -65
27 -165 27 -93 -1 -117 -4 -155 -23 -68 -33 -117 -78 -150 -136 l-30 -51 0
245 c0 276 8 351 48 430 35 69 86 100 176 107 116 10 203 -39 243 -136 9 -20
18 -73 21 -118 l5 -83 103 0 104 0 0 68 c0 84 -30 206 -67 274 -39 72 -119
141 -195 168 -83 29 -267 37 -347 15z m217 -966 c70 -14 125 -64 153 -137 19
-49 22 -83 27 -242 7 -284 -14 -391 -89 -455 -45 -37 -74 -47 -149 -48 -88 -1
-132 16 -178 68 -57 65 -64 95 -69 325 -8 340 21 437 147 480 64 22 91 24 158
9z"/>
<path d="M3870 2520 l0 -840 -355 0 -355 0 0 -100 0 -100 460 0 460 0 0 940 0
940 -105 0 -105 0 0 -840z"/>
<path d="M1460 1620 c-38 -38 -16 -100 34 -100 32 0 46 19 46 62 0 32 -4 40
-26 48 -33 13 -31 13 -54 -10z m68 -33 c6 -55 -50 -80 -68 -31 -14 37 4 66 38
62 21 -2 28 -9 30 -31z"/>
<path d="M989 1584 c2 -32 -1 -49 -10 -55 -11 -7 -9 -9 6 -9 18 0 20 5 17 55
-2 30 -7 55 -10 55 -4 0 -5 -21 -3 -46z"/>
<path d="M1062 1573 l1 -58 6 48 6 47 28 -45 c16 -25 33 -45 38 -45 5 0 8 26
7 58 l-1 57 -6 -45 -6 -45 -29 43 c-16 23 -33 42 -37 42 -5 0 -8 -26 -7 -57z"/>
<path d="M1207 1623 c19 -4 23 -12 26 -56 l3 -52 2 52 c2 45 5 52 25 56 12 2
0 4 -28 4 -27 0 -40 -2 -28 -4z"/>
<path d="M1321 1573 c1 -39 3 -50 8 -34 9 34 29 37 42 7 7 -14 17 -26 22 -26
5 0 3 10 -5 23 -11 16 -12 27 -5 38 16 26 1 49 -33 49 l-30 0 1 -57z m57 30
c-2 -10 -13 -19 -26 -21 -17 -3 -22 2 -22 17 0 16 6 21 26 21 19 0 25 -5 22
-17z"/>
</g>
</svg>
